<svg id="Layer_1" data-name="Layer 1" xmlns="http://www.w3.org/2000/svg" height="50%"   viewBox="0 0 224.18 264.68">
  <defs>
    <style>
      .cls-1-bike {
        fill: #c2c782;
      }

      .cls-2-bike {
        font-size: 31px;
        fill: #010101;
        font-family: BrandonGrotesque-Medium, Brandon Grotesque;
        font-weight: 500;
      }

      .cls-3-bike {
        font-size: 19px;
      }

      .cls-4-bike {
        letter-spacing: 0.2em;
      }

      .cls-5-bike {
        fill: #fff;
        stroke: #231f20;
      }

      .cls-5-bike, .cls-7-bike {
        stroke-miterlimit: 10;
      }

      .cls-6-bike {
        fill: #030303;
      }

      .cls-7-bike {
        fill: none;
        stroke: #1d1d1b;
        stroke-width: 2px;
      }
    </style>
  </defs>
  <title>bike01</title>
  <g>
    <g>
      <path class="cls-1-bike" d="M262.24,121.57c0,53.82-97.45,149-97.45,149S67.33,175.39,67.33,121.57a97.46,97.46,0,1,1,194.91,0Z" transform="translate(-54.9 -24.11)"/>
      <text class="cls-2-bike" transform="translate(31.24 72.98)"><tspan xml:space="preserve">200 YEARS  </tspan><tspan class="cls-3-bike"><tspan x="70.23" y="22.8">of </tspan></tspan><tspan class="cls-4-bike" x="0.96" y="60">a bicycle</tspan><tspan x="161.07" y="60"> </tspan></text>
      <line class="cls-5-bike" x1="35.8" y1="91.81" x2="92.85" y2="91.81"/>
      <line class="cls-5-bike" x1="125.98" y1="91.81" x2="183.03" y2="91.81"/>
    </g>
    <g>
      <path class="cls-6-bike" d="M203.56,222.31a27.86,27.86,0,1,0,27.86,27.85A27.85,27.85,0,0,0,203.56,222.31Zm24.36,27.85a24.25,24.25,0,0,1-.14,2.56l-13.84-2.27,13.95-1.39C227.9,249.42,227.92,249.79,227.92,250.16Zm-48.71,0a25.59,25.59,0,0,1,.14-2.63l13.89,2.27-14,1.4C179.22,250.86,179.21,250.51,179.21,250.16Zm25.46.31-.12.26-.19.23-.24.18-.27.1-.3,0-.37-.06-.2-.09-.23-.19-.18-.25-.1-.28,0-.3,0-.3.13-.27.19-.23.24-.18.28-.11.31,0,.21,0,.35.16.22.18.18.24.1.28,0,.29Zm.46-.49v0l0,0,0,0Zm.1-.23,0-.08.11.05-.07.09Zm-.17-.14,0,0v0l0,0Zm0-.27,0-.12.12,0-.06.13Zm-.21-.09,0,0v0h0Zm-.31-.33v0h0v0Zm-.09-.24,0-.09.12,0v.12Zm-.22,0h0v0l0,0Zm-.19-.2-.05-.07.1-.08,0,.12Zm-.21.08h0l0,0Zm-.44,0h0l0,0,0,0Zm-.23-.11-.08,0,.05-.11.1.08Zm-.14.18h0v0Zm-.26,0h-.1l0-.11.11.05Zm-.1.21v0h0v0Zm-.31.31h0v0h0Zm-.24.09-.09,0,0-.12.13,0Zm0,.23v0l0,0,0,0Zm-.2.18-.09.06-.07-.11.12,0Zm.07.21,0,0,0,0,0,0Zm-.15.23-.06.08-.1-.08.11-.08Zm.13.19,0,0v0l0,0Zm-.08.26,0,.09-.12-.05.08-.1Zm.17.14,0,0v0l0,0Zm0,.28,0,.07h-.12l.05-.1Zm.2.09,0,0h0Zm.3.29,0,0h0v0Zm.1.25,0,.09-.11,0,0-.13Zm.22,0h0l0,0h0Zm.18.21.06.08-.1.08,0-.12Zm.21-.08h0l0,0,0,0Zm.43,0,0,0,0,0,0,0Zm.24.11.09,0L204,252l-.1-.08Zm.14-.17,0,0h0l0,0Zm.29,0h.09l0,.15-.12-.06Zm.09-.21v0h0v0Zm.31-.3h0v0h0ZM205,251l.09,0,0,.12H205Zm0-.23v0h0l0,0Zm.21-.17.07-.06.07.1-.11,0Zm-.08-.22v0l0,0,0,0Zm.15-.22.06-.07.09.08-.1.07Zm.2-.24.11-.14.23.1-.21.15Zm.25-.32.22-.27.52.09-.44.32Zm-.2-.09-.17-.07.09-.19.26,0Zm0-.46.13-.3.52-.05-.32.4Zm-.22,0-.19,0,0-.18.26,0Zm-.4-.06-.1,0v-.1h.13Zm-.13-.33,0-.18.25-.1-.05.26Zm0-.41,0-.32.43-.31-.08.52Zm-.21.08-.18.07-.06-.17.21-.15Zm-.32-.31-.12-.31.33-.4,0,.52Zm-.19.13-.15.11-.1-.15.16-.2Zm-.32.24-.09.05-.07-.05.08-.1Zm-.33-.14-.14-.12.11-.24.15.21Zm-.31-.26-.25-.21.08-.51.3.42Zm-.09.21-.08.17-.17-.08.05-.26Zm-.45,0-.3-.14,0-.52.4.33Zm0,.22,0,.16-.19,0,0-.24Zm-.06.38,0,.1h-.1v-.13Zm-.33.13-.19,0-.09-.25.26,0Zm-.41,0-.33,0-.31-.43.52.09Zm.08.21.06.18-.17.06-.16-.21Zm-.32.32-.31.12-.41-.34.52-.05Zm.13.18.11.16-.16.11-.2-.17Zm-.23.4-.27.19-.48-.22.49-.18Zm.18.14.14.12-.12.14-.24-.11Zm-.12.44-.19.24-.52-.09.41-.29Zm.21.09.17.08-.07.15-.26,0Zm0,.43-.14.31-.52.05.34-.41Zm.22,0,.18,0,0,.18-.26,0Zm.39.07h.1v.1h-.13Zm.13.33,0,.18-.25.09.05-.26Zm0,.41,0,.33-.42.3.08-.52Zm.21-.08.17-.07.07.18-.22.15Zm.31.32.12.31-.33.4-.05-.52Zm.19-.13.15-.11.1.15-.16.2Zm.32-.24.08,0,.07.06-.07.1Zm.32.15.15.12-.11.24-.15-.22Zm.32.26.26.21-.09.51-.3-.42Zm.09-.2.08-.17.17.08,0,.25Zm.46,0,.3.14,0,.51-.41-.33Zm0-.22,0-.2.18,0,0,.28Zm.07-.42,0-.09h.09v.12Zm.33-.12.18,0,.09.24-.26,0Zm.4,0,.32,0,.3.42-.51-.08Zm-.08-.21-.06-.17.17-.07.15.21Zm.32-.32.3-.11.4.33-.52,0Zm-.13-.18-.11-.15.15-.1.2.16Zm.22-.38.26-.19.47.21-.48.18Zm.47-.34.51-.37,1.18.19-1.14.43Zm.76-.55,1.09-.79,3.93-.39-3.69,1.4Zm-.3,0-.61-.1.39-.47,1.18-.12Zm0-.81.86-1,3.69-1.4-3.21,2.3Zm-.3,0-.61.06L206,248l1.11-.42Zm-.86.08-.33,0,.05-.32.49-.19Zm-.24-.53.1-.61,1-.69-.48,1.08Zm.15-.91.22-1.33,2.5-3.05-1.63,3.59Zm-.25.18-.5.36-.06-.61.75-.92Zm-.59-.56-.14-1.33,1.63-3.6-.64,3.89Zm-.2.24-.39.48-.21-.57.49-1.09Zm-.55.67-.21.26-.19-.27.22-.47Zm-.54-.21L203,247l.19-1.17.42,1.11Zm-.54-.75-.78-1.09-.4-3.93,1.4,3.69Zm-.05.31-.1.6-.47-.38L202,246Zm-.81,0-1-.85-1.4-3.69,2.3,3.2Zm0,.31.06.61-.56-.25-.42-1.11Zm.09.86,0,.31-.33-.06-.18-.46Zm-.55.21-.61-.1-.68-.94,1.08.49Zm-.92-.15-1.34-.22-3-2.47,3.6,1.62Zm.18.25.37.51-.62.06-.93-.76Zm-.56.6-1.35.14-3.64-1.65,3.94.65Zm.24.19.48.4-.58.22-1.1-.5ZM200,250l-1.23.46-3.89-.64,3.88-.38Zm.28.12.57.26-.48.34-1.17-.19Zm-.16.78-1.09.79-3.93.39,3.69-1.39Zm.3,0,.61.1-.39.48-1.18.12Zm0,.82-.85,1-3.69,1.39,3.21-2.3Zm.31,0,.61-.07-.25.57-1.11.42Zm.86-.09.32,0-.05.32-.49.19Zm.23.54-.1.61-1,.69.49-1.08Zm-.15.91-.22,1.33-2.5,3,1.63-3.59ZM202,253l.5-.35.06.61-.75.91Zm.59.56.13,1.34-1.62,3.6.64-3.9Zm.19-.23.39-.48.22.58-.49,1.08Zm.55-.67.2-.25.2.26-.22.48Zm.54.22.36.5L204,254.5l-.42-1.11Zm.54.75.79,1.09.39,3.93-1.39-3.7Zm.05-.3.1-.61.48.39.12,1.18Zm.82,0,1,.86,1.39,3.69-2.3-3.21Zm0-.3-.06-.61.56.25.42,1.11Zm-.09-.86,0-.35.32,0,.19.52Zm.53-.26.6.1.71,1-1.08-.49Zm.9.15,1.32.22,3.09,2.52-3.6-1.62Zm-.17-.25-.36-.49.6-.06.91.74Zm.55-.58,1.33-.13,3.55,1.6L208,252Zm-.24-.2-.47-.38.57-.21,1.07.48Zm.39-.7,1.29-.49,3.89.64-4,.4Zm1.69-.64,4.1-1.55,14.77-1.48c.11.75.19,1.5.23,2.26l-14.77,1.48Zm4.88-1.85,13.12-5a23.76,23.76,0,0,1,.84,3.57Zm-.83.09-4.36.43,3.55-2.56,13.9-5.25c.29.7.56,1.4.8,2.12Zm-.13-2.61,11.39-8.19a25,25,0,0,1,1.74,3.22Zm-.78.29-4.1,1.55,2.77-3.39,12-8.66c.48.6.92,1.21,1.33,1.84Zm-4.51,1.71-1.26.47.56-1.22,3.2-2.31Zm-.52-1.15,1.8-4,9.4-11.49c.6.45,1.18.93,1.75,1.44l-9.4,11.48Zm2.14-4.76,5.77-12.78a23.38,23.38,0,0,1,3.11,1.94Zm-.53.65-2.77,3.4.7-4.33,6.11-13.53q1.07.42,2.07.93Zm-1.93-1.76,2.26-13.84a24.92,24.92,0,0,1,3.51,1.06Zm-.35.77-1.8,4-.43-4.35L206.38,226c.76.09,1.5.21,2.24.37Zm-2,4.39-.55,1.23-.48-1.26.64-3.89Zm-1.18-.44-1.55-4.09L200,226.07c.75-.11,1.5-.18,2.26-.22l1.48,14.77Zm-1.85-4.88-5-13.13a22.58,22.58,0,0,1,3.57-.83Zm.09.84.43,4.36-2.55-3.56-5.26-13.91c.69-.3,1.4-.56,2.12-.8Zm-2.61.12-8.2-11.41a23.3,23.3,0,0,1,3.23-1.73Zm.29.79,1.55,4.1-3.39-2.78-8.68-12.07c.6-.48,1.21-.92,1.84-1.33Zm1.71,4.5.47,1.26-1.22-.55-2.3-3.21Zm-1.15.53-4-1.8L184,235.61c.45-.6.93-1.18,1.44-1.75L197,243.28Zm-4.75-2.15L182,238.9a24.46,24.46,0,0,1,1.94-3.11Zm.65.54,3.35,2.74-4.36-.71-13.51-6.1a22.46,22.46,0,0,1,.94-2.06Zm-1.84,1.89-13.81-2.26a23.38,23.38,0,0,1,1.05-3.49Zm.76.35,4,1.82-4.32.43-14.7-2.41a20.72,20.72,0,0,1,.36-2.23Zm-.29,2.47,4.32.71-4.1,1.54-14.83,1.49c-.11-.75-.18-1.5-.22-2.26Zm-.56,2.55-13.19,5a25.62,25.62,0,0,1-.83-3.59Zm.84-.08,4.35-.44-3.55,2.56-14,5.28c-.3-.7-.57-1.41-.8-2.13Zm.11,2.61L183,263.25a25.25,25.25,0,0,1-1.74-3.24Zm.79-.3,4.09-1.55-2.77,3.39-12.11,8.71c-.47-.59-.92-1.21-1.33-1.84Zm4.5-1.7,1.26-.47-.56,1.22-3.2,2.3Zm.53,1.15-1.81,4L189,269.71c-.61-.45-1.19-.93-1.76-1.44l9.45-11.54Zm-2.15,4.76-5.8,12.85a23.59,23.59,0,0,1-3.13-1.94Zm.53-.65,2.77-3.39-.71,4.32-6.13,13.61a21.48,21.48,0,0,1-2.07-.94Zm1.93,1.76L198.31,274a23.75,23.75,0,0,1-3.52-1.05Zm.34-.76,1.81-4,.43,4.36-2.41,14.71c-.75-.09-1.5-.21-2.24-.36Zm2-4.39.56-1.22.47,1.26-.63,3.89Zm1.19.44,1.55,4.1,1.48,14.83c-.75.11-1.5.18-2.26.22l-1.48-14.83Zm1.84,4.89,5,13.17a23.89,23.89,0,0,1-3.58.84Zm-.08-.84-.44-4.36,2.56,3.56,5.27,13.94a22.51,22.51,0,0,1-2.12.8Zm2.61-.12,8.21,11.43a23.36,23.36,0,0,1-3.23,1.74Zm-.3-.78-1.54-4.1,3.39,2.78,8.68,12.08c-.59.47-1.21.92-1.83,1.33Zm-1.7-4.5-.47-1.26,1.23.55,2.3,3.21Zm1.15-.53,4,1.8,11.51,9.42c-.45.61-.93,1.19-1.44,1.76L210.18,257Zm4.76,2.15,12.81,5.78a24.15,24.15,0,0,1-1.94,3.12Zm-.65-.53-3.42-2.8,4.28.7,13.63,6.15q-.42,1-.93,2.07Zm1.69-2,13.94,2.28a25.31,25.31,0,0,1-1.06,3.54Zm-.77-.34-4-1.79,4.4-.44,14.66,2.4c-.09.76-.21,1.5-.36,2.24Zm9.86-17.9L211.12,243,220,232.2c.26.24.53.49.78.75C221.39,233.56,222,234.2,222.51,234.86ZM206.17,226l-2.27,13.84-1.39-13.95q.53,0,1.05,0A25.06,25.06,0,0,1,206.17,226Zm-17.88,5.24,8.2,11.41-10.87-8.9c.23-.25.47-.51.72-.75C187,232.32,187.62,231.74,188.29,231.19Zm-3.7,34.25L196,257.21l-8.93,10.91c-.26-.24-.52-.48-.77-.73C185.72,266.76,185.14,266.11,184.59,265.44ZM201,274.38l2.27-13.9,1.4,14c-.36,0-.72,0-1.09,0A24.48,24.48,0,0,1,201,274.38Zm17.89-5.28-8.2-11.41,10.87,8.9c-.24.27-.5.53-.76.8A23.58,23.58,0,0,1,218.87,269.1Z" transform="translate(-54.9 -24.11)"/>
      <path class="cls-6-bike" d="M120.31,222.57a27.59,27.59,0,1,0,27.59,27.59A27.59,27.59,0,0,0,120.31,222.57Zm24.12,27.59a23,23,0,0,1-.16,2.76l-13.69-2.24,13.83-1.39C144.42,249.58,144.43,249.87,144.43,250.16Zm-48.24,0c0-.8,0-1.59.11-2.38L110.09,250l-13.87,1.39Q96.19,250.79,96.19,250.16Zm25.22.53-.12.27-.18.22-.24.17-.28.11-.29,0-.37-.06-.2-.09-.23-.19-.17-.24-.11-.28,0-.3,0-.29.12-.28.19-.23.25-.17.27-.11.3,0,.21,0,.35.15.22.19.17.24.11.27,0,.29Zm.45-.48v0l0,0,0,0Zm.1-.23,0-.08.12,0L122,250Zm-.17-.14,0,0v0l0,0Zm0-.26,0-.12.13,0-.06.13Zm-.2-.1h0v-.05h0Zm-.31-.32v0h0v0Zm-.09-.24,0-.08.12-.05v.12Zm-.22,0h0v0l0,0Zm-.18-.19-.06-.08.11-.07,0,.11Zm-.21.07,0,0,0,0,0,0Zm-.44,0h0l0,0,0,0Zm-.23-.1-.08,0,.05-.12.1.08Zm-.14.17h0Zm-.26,0-.09,0v-.1l.11.05Zm-.09.2v0h0v-.05Zm-.31.31h0v0h0Zm-.24.09-.09,0,0-.12h.13Zm0,.22v0h0l0,0Zm-.2.18-.08.06-.08-.1.12-.05Zm.08.21v0l0,0,0,0Zm-.15.23-.06.08-.11-.08.11-.08Zm.13.18,0,0,0,0,0,0Zm-.09.27,0,.09-.12-.06.08-.1Zm.17.14,0,0v0l0,0Zm0,.27v.08l-.13,0,0-.1Zm.2.09,0,0h0Zm.3.29v0h0v0Zm.09.24,0,.09-.12.05v-.13Zm.22,0h0l0,0,0,0Zm.18.21.06.08-.1.07-.05-.12Zm.21-.08h0l0,0,0,0Zm.43,0h0l0,0,0,0Zm.23.1.09,0-.05.11-.1-.08Zm.14-.17,0,0h0l0,.05Zm.29,0,.09,0,0,.14-.12-.05Zm.09-.2v0h0v0Zm.3-.3h0v0h0Zm.24-.09.09,0,0,.12h-.12Zm0-.22v0l0,0v0Zm.2-.18.07,0,.07.09-.11.05Zm-.08-.21v0l0,0,0,0Zm.15-.22.06-.07.09.07-.1.07Zm.19-.24.12-.14.23.11-.21.14Zm.26-.31.22-.27.51.08-.44.32Zm-.2-.09-.17-.08.08-.18.26,0Zm0-.47.13-.29.52-.05-.33.4Zm-.22,0-.19,0,0-.18.26,0Zm-.4-.07h-.1v-.09l.12,0Zm-.13-.32v-.18l.24-.09,0,.25Zm0-.4,0-.32.42-.3-.08.5Zm-.21.08-.17.06-.06-.16.21-.16Zm-.31-.31-.12-.31.33-.4,0,.52Zm-.18.13-.15.11-.11-.15.17-.2Zm-.33.23-.08.06-.07-.06.08-.1Zm-.32-.14-.14-.11.11-.24.15.21Zm-.31-.25-.25-.21.08-.51.3.42Zm-.09.2-.08.17-.16-.07,0-.26Zm-.45,0-.29-.14,0-.51.4.32Zm0,.21,0,.17-.18,0,0-.24Zm-.06.38,0,.1h-.1V249Zm-.33.13-.19,0-.09-.25.26,0Zm-.41,0-.33,0-.3-.43.52.09Zm.08.21.07.17-.18.07-.15-.22Zm-.31.32-.31.11-.41-.33.52,0Zm.12.18.11.15-.15.11-.2-.17Zm-.22.39-.27.19-.48-.22.5-.18Zm.17.14.15.12-.12.14-.24-.11Zm-.11.43-.19.24-.51-.09.4-.28Zm.2.09.17.08-.07.15-.25,0Zm0,.43-.13.3-.52.05.33-.4Zm.22,0,.18,0,0,.18-.25,0Zm.39.06.09,0v.1H119Zm.13.33V252l-.24.09,0-.26Zm0,.41,0,.32-.42.3.08-.51Zm.21-.08.16-.07.07.18-.21.15Zm.31.32.11.3-.32.4,0-.52Zm.18-.13.14-.11.11.15-.16.2Zm.32-.23.07-.06.08.07-.08.09Zm.32.14.14.12-.1.23-.16-.21Zm.32.26.25.21-.09.51-.3-.43Zm.09-.2.07-.17.17.08,0,.25Zm.44,0,.3.13,0,.52-.4-.33Zm0-.22,0-.2.18,0,0,.28Zm.07-.41v-.1h.09l0,.12Zm.32-.12.18,0,.09.23-.25,0Zm.4-.05.32,0,.3.42-.51-.08Zm-.08-.2-.06-.17.16-.06.15.2Zm.31-.31.3-.12.4.32-.51.06Zm-.13-.19-.1-.14.14-.11.2.17Zm.23-.38.26-.18.46.21-.48.18Zm.46-.33.51-.37,1.16.19-1.12.43Zm.76-.55,1.08-.77,3.89-.39-3.65,1.38Zm-.3,0-.6-.1.38-.47,1.17-.12Zm0-.81.84-1,3.66-1.38-3.17,2.28Zm-.3,0-.61.06.25-.55,1.1-.42Zm-.86.09-.32,0,0-.32.49-.18Zm-.23-.53.1-.6,1-.69-.49,1.07Zm.15-.9.21-1.32,2.48-3-1.61,3.56Zm-.25.17-.49.36-.06-.6.74-.91Zm-.58-.55-.14-1.32,1.61-3.57-.63,3.86Zm-.2.24-.38.47-.22-.57.49-1.07Zm-.54.66-.21.26-.19-.26.22-.48Zm-.54-.21-.36-.49.19-1.16.42,1.1Zm-.53-.74-.78-1.08-.39-3.89,1.38,3.66Zm0,.3-.1.61-.47-.39-.12-1.17Zm-.81,0-1-.84-1.38-3.66,2.28,3.17Zm0,.3.06.61-.55-.25-.41-1.1Zm.09.86,0,.3-.33-.05-.17-.46Zm-.54.21-.61-.1-.67-.93,1.07.48Zm-.91-.15-1.33-.22-3-2.45,3.56,1.61Zm.18.25.36.5-.62.06-.92-.76Zm-.56.59-1.34.13-3.6-1.62,3.9.63Zm.24.19.47.39-.57.22-1.09-.49Zm-.39.72-1.22.46-3.85-.63,3.84-.39Zm.28.12.56.25-.47.35-1.16-.19Zm-.16.77-1.09.78-3.88.39,3.65-1.38Zm.3,0,.6.1-.39.47-1.16.12Zm0,.81-.85,1-3.65,1.38,3.17-2.28Zm.3,0,.61-.06-.26.55-1.09.42Zm.85-.09.32,0,0,.32-.48.19Zm.23.54-.1.6-1,.69.48-1.08Zm-.15.9-.21,1.32-2.48,3,1.61-3.56Zm.25-.17.49-.36.06.61-.74.91Zm.58.55.14,1.33-1.61,3.56.63-3.86Zm.2-.24.38-.46.22.57-.49,1.07Zm.54-.66.2-.25.19.27-.21.47Zm.54.22.36.5-.19,1.16-.42-1.11Zm.53.74.78,1.09.39,3.89-1.38-3.66Zm0-.3.1-.6.47.39.12,1.17Zm.81,0,1,.85,1.38,3.65-2.28-3.17Zm0-.3-.06-.6.55.25.42,1.1Zm-.09-.85,0-.35.31.06.2.5Zm.53-.25.59.09.71,1-1.08-.48Zm.89.14,1.31.22,3,2.5-3.56-1.61Zm-.17-.24-.35-.49.59-.06.9.73Zm.55-.58,1.31-.13,3.52,1.59-3.81-.63Zm-.24-.19-.46-.38.56-.22,1.06.48Zm.38-.71,1.28-.48,3.86.63L125,251Zm1.68-.63,4.06-1.53,14.66-1.47c.1.74.17,1.48.21,2.24l-14.65,1.46Zm4.83-1.83,13.07-4.94a25.13,25.13,0,0,1,.8,3.56Zm-.82.09-4.32.43,3.52-2.53,13.85-5.24a22.13,22.13,0,0,1,.77,2.11Zm-.12-2.59,11.38-8.18a23.7,23.7,0,0,1,1.7,3.23Zm-.78.29-4.06,1.54,2.74-3.36,12.06-8.66c.46.59.9,1.2,1.3,1.83Zm-4.46,1.69-1.25.47.54-1.21,3.18-2.28Zm-.53-1.13,1.79-4,9.42-11.52c.6.45,1.17.93,1.73,1.44l-9.41,11.5Zm2.13-4.71,5.8-12.85a23.45,23.45,0,0,1,3.11,1.95Zm-.53.64-2.75,3.36.7-4.28,6.14-13.61a22.28,22.28,0,0,1,2.05.94Zm-1.91-1.74,2.28-13.94a25.08,25.08,0,0,1,3.52,1.07Zm-.34.76-1.79,3.95-.43-4.31,2.41-14.75c.75.09,1.49.21,2.22.37Zm-2,4.34-.55,1.22-.47-1.25.63-3.85Zm-1.17-.43-1.53-4.06-1.49-14.87c.74-.1,1.48-.18,2.24-.22l1.48,14.87ZM118,240.39l-5-13.22a22.59,22.59,0,0,1,3.59-.84Zm.09.82.43,4.32L116,242l-5.29-14c.69-.3,1.39-.56,2.1-.8Zm-2.59.13-8.24-11.46a24.2,24.2,0,0,1,3.24-1.76Zm.29.77,1.54,4.06L114,243.43l-8.7-12.11c.58-.47,1.19-.92,1.81-1.33Zm1.69,4.47.47,1.24-1.21-.54-2.28-3.18Zm-1.13.52-4-1.79-11.51-9.42q.66-.9,1.41-1.74l11.52,9.43ZM111.62,245l-12.81-5.78a24.42,24.42,0,0,1,1.92-3.12Zm.64.53,3.33,2.72-4.33-.71L97.8,241.44c.28-.7.58-1.38.91-2.05Zm-1.82,1.88-13.73-2.25a23.63,23.63,0,0,1,1-3.49Zm.76.34,4,1.8-4.27.43-14.59-2.39a21.28,21.28,0,0,1,.34-2.22Zm-.29,2.45,4.28.7-4.06,1.53-14.66,1.47c-.11-.74-.19-1.48-.24-2.23Zm-.56,2.53-13,4.91a23.6,23.6,0,0,1-.86-3.53Zm.83-.09,4.32-.43L112,254.72l-13.74,5.19c-.3-.68-.57-1.38-.81-2.09Zm.12,2.59-11.24,8.08a25.09,25.09,0,0,1-1.74-3.17Zm.78-.29,4-1.54-2.75,3.36-11.88,8.54c-.47-.58-.91-1.19-1.32-1.81Zm4.45-1.69,1.25-.47-.55,1.22-3.17,2.28Zm.52,1.14-1.78,4L106,269.61c-.6-.45-1.18-.92-1.74-1.42l9.24-11.3Zm-2.12,4.71-5.67,12.55a24.23,24.23,0,0,1-3.06-1.89Zm.52-.64,2.75-3.36-.7,4.29-6,13.27a20.92,20.92,0,0,1-2.05-.91Zm1.92,1.75-2.22,13.55a22.33,22.33,0,0,1-3.44-1Zm.33-.76,1.79-4,.43,4.31-2.35,14.35c-.74-.08-1.48-.2-2.21-.35Zm2-4.35.55-1.21.47,1.25-.63,3.85Zm1.17.44,1.53,4.06L123.82,274c-.74.11-1.48.18-2.24.22l-1.44-14.46Zm1.83,4.84,4.85,12.84A23.91,23.91,0,0,1,124,274Zm-.08-.83-.44-4.31,2.54,3.52,5.14,13.61c-.69.29-1.39.56-2.1.79Zm2.58-.11,8,11.15a22.85,22.85,0,0,1-3.16,1.69Zm-.29-.78-1.53-4.06,3.35,2.75,8.5,11.82c-.59.47-1.2.9-1.83,1.31Zm-1.69-4.46-.47-1.25,1.22.55,2.28,3.17Zm1.14-.52,4,1.78,11.29,9.25c-.45.59-.93,1.17-1.44,1.72l-11.28-9.23Zm4.71,2.13,12.59,5.68a23.54,23.54,0,0,1-1.92,3Zm-.64-.53L125,252.48l4.24.69,13.42,6.06c-.28.69-.59,1.37-.94,2Zm1.67-1.95,13.76,2.26a23.61,23.61,0,0,1-1.08,3.47Zm-.76-.34-3.91-1.77,4.36-.43,14.49,2.37c-.09.75-.22,1.48-.37,2.21Zm9.88-17.81-11.39,8.19,8.9-10.87c.22.2.45.42.67.64A23.28,23.28,0,0,1,139.19,235.15Zm-16.26-9-2.28,13.94-1.41-14.06,1.07,0A25.4,25.4,0,0,1,122.93,226.18Zm-17.85,5.27,8.23,11.45L102.41,234c.28-.3.55-.6.84-.88C103.84,232.52,104.45,232,105.08,231.45Zm-3.44,34,11.22-8.06-8.74,10.67-.87-.83C102.68,266.65,102.14,266.05,101.64,265.44Zm16.15,8.71L120,260.61l1.37,13.65-1.06,0A23.36,23.36,0,0,1,117.79,274.15ZM135.37,269l-8-11.16L138,266.56l-.63.66A25.85,25.85,0,0,1,135.37,269Z" transform="translate(-54.9 -24.11)"/>
      <path class="cls-6-bike" d="M153.8,246.78h0q-.37,0-.75,0c-.25,0-.49,0-.73,0l-32.21,0H120a3.63,3.63,0,0,0-.81,7.17h0l31.45,8.44c.22.07.45.13.68.18l.05,0h0a8,8,0,1,0,2.47-15.78Zm-3.32,13.45a.6.6,0,0,1,.76-.37,5.47,5.47,0,0,0,1.79.3h0a.6.6,0,0,1,0,1.2h0a6.63,6.63,0,0,1-2.17-.36A.61.61,0,0,1,150.48,260.23Zm-1.86-3.48,2.25-.61a2.6,2.6,0,0,0,.71.73l-.67,2.24A4.86,4.86,0,0,1,148.62,256.75Zm8.68-4.29a4.77,4.77,0,0,1,.57,2.29,5.23,5.23,0,0,1-.09,1l-2.19-.83s0-.1,0-.14a2.49,2.49,0,0,0-.16-.87Zm-1-2.8a.61.61,0,0,1,.85-.1,6.66,6.66,0,0,1,1.48,1.65.6.6,0,0,1-.19.83.62.62,0,0,1-.32.09.61.61,0,0,1-.51-.28,5.36,5.36,0,0,0-1.21-1.35A.6.6,0,0,1,156.29,249.66Zm-.72-.4a.6.6,0,0,1-.57.4.69.69,0,0,1-.2,0,5.31,5.31,0,0,0-1.77-.3h0a.6.6,0,0,1,0-1.2h0a6.67,6.67,0,0,1,2.17.36A.61.61,0,0,1,155.57,249.26Zm-2.54.64a4.84,4.84,0,0,1,2.39.63L154,252.35a2.51,2.51,0,0,0-.92-.17H153l-.77-2.21A5.85,5.85,0,0,1,153,249.9Zm.54,9.66.12-2.33a2.77,2.77,0,0,0,.91-.45l1.92,1.32A4.81,4.81,0,0,1,153.57,259.56Zm2.34-.23a5.38,5.38,0,0,0,1.35-1.21.61.61,0,0,1,.85-.1.6.6,0,0,1,.09.85,6.66,6.66,0,0,1-1.65,1.48.62.62,0,0,1-.32.09.6.6,0,0,1-.32-1.11Zm2.23-2.8a5.37,5.37,0,0,0,.3-1.78v0a.6.6,0,0,1,.6-.6.6.6,0,0,1,.6.6v0a6.5,6.5,0,0,1-.37,2.19.58.58,0,0,1-.56.4.64.64,0,0,1-.2,0A.61.61,0,0,1,158.14,256.53Zm-7.58-2.5-2.33.05a4.8,4.8,0,0,1,1.53-2.91l1.28,2A2.57,2.57,0,0,0,150.56,254Zm-.42-3.86a5.19,5.19,0,0,0-1.35,1.21.61.61,0,0,1-.47.23.67.67,0,0,1-.38-.13.6.6,0,0,1-.09-.85,6.62,6.62,0,0,1,1.64-1.48.6.6,0,0,1,.65,1Zm-2.23,2.8a5.63,5.63,0,0,0-.3,1.78.6.6,0,0,1-1.2,0h0a6.44,6.44,0,0,1,.37-2.18.6.6,0,1,1,1.13.4Zm-.29,4.48a.6.6,0,0,1,.83.18,5.19,5.19,0,0,0,1.21,1.35.6.6,0,0,1,.09.85.59.59,0,0,1-.47.22.58.58,0,0,1-.37-.13,6.8,6.8,0,0,1-1.48-1.64A.6.6,0,0,1,147.62,257.45Zm-27-3.49a3.64,3.64,0,0,0,.91-6.86l29.06,0a8,8,0,0,0-1.82,14.38Z" transform="translate(-54.9 -24.11)"/>
      <path class="cls-6-bike" d="M203.56,247.91a2.58,2.58,0,0,0-.39,0c-.24-.31-.47-.62-.69-.94-.59-.87-1.14-1.78-1.65-2.71a42.87,42.87,0,0,1-2.66-5.77l-.16-.45-3.9-11.89-2.34-7.11h0a.88.88,0,0,0,.54-1.11l-3.67-10.75a.89.89,0,0,0-1-.57l-.62-1.88,1-.42c.54-.2,2.33-.56,2.33-.56l.14.05a1.71,1.71,0,0,0,2.12-2.65h0a12.84,12.84,0,0,1-1-1.71c-.14-.32-.59-1.58-.63-1.76a.29.29,0,0,0,.06-.1.84.84,0,0,0,.18-.52.86.86,0,0,0-.62-.83,5.71,5.71,0,0,0-2.32-1.51l-.08,0-.1,0h-.19a1.66,1.66,0,0,0-1.66,1.67,1.56,1.56,0,0,0,.1.57,1.52,1.52,0,0,0-.1.57,1.66,1.66,0,0,0,2.93,1.07.43.43,0,0,1,.29.24,3.61,3.61,0,0,1,.49,1.21,1.72,1.72,0,0,0-.86.82c-1.08.15-3.78.34-4.18.51a11.83,11.83,0,0,0-1.75,1.08c-.16.15-.63.86-.05,1a2.47,2.47,0,0,0,.79.08l.27.78-.09,0c-.31.12-.62.49-.6.66a.73.73,0,0,0,.68.64,2,2,0,0,0,.48,0l.64,1.82a.88.88,0,0,0-.44,1.06l.25.71-3.2.17-2.86.14-2.87.12-2.86.13a17.07,17.07,0,0,0-2.86,0l-5.72.25c-1.91.08-3.82.19-5.73.28l-2.85.16-1.43.08-.36,0a1.49,1.49,0,0,0-.36,0c-.12,0-.23.11-.35.16a.86.86,0,0,1-.35.06q-2.86.17-5.72.29c-1.81.08-3.62.13-5.42.17l0-.15.07,0a.36.36,0,0,0,.24-.44l-.2-.68a.37.37,0,0,0-.44-.24l-.06,0-2.55-9.05,1.79-.09a2.47,2.47,0,0,0,1.38-.57l2.39-2.17a8.55,8.55,0,0,1,1.94,0,11.7,11.7,0,0,0,2.86.06c.16-.08.31-2.23-3.33-2.23s-8.47,0-9,0-4.32-.57-4.91-.74a15.06,15.06,0,0,0-3.9-.57c-.39.17-.37,1.56.26,2.23a10.19,10.19,0,0,0,2.89,1.73l1.81,2a2,2,0,0,0,1.32.57h.06l2.35-.12a.65.65,0,0,1,.16.21h0l2.61,9.27-.88.26a.35.35,0,0,0-.23.44l.2.67a.35.35,0,0,0,.43.24l.87-.26.37,1.32-21.17,36.1,1.34.78h-.07l-.12.89,32.45,4.5.09-.68.11,0,.07-.43.72.65c.83-.75,1.64-1.51,2.44-2.28l1.2-1.15,1.19-1.17c.8-.78,1.57-1.57,2.36-2.36s1.55-1.58,2.33-2.37c3.09-3.18,6.08-6.45,9.11-9.7l4.5-4.9,4.46-4.93c2.22-2.48,4.43-5,6.62-7.48l.26.77a.88.88,0,0,0,1.11.55h0L191.1,224l1,2.91h0v0l1.08,3,1.08,3,1.09,3s0,0,0,.05h0l.36,1c.07.22.15.43.22.64l.1.26.09.26,0,.09,0,0a.14.14,0,0,0,0,.06l.24.64c.39,1,.81,2,1.25,3s.9,2,1.41,3a30.39,30.39,0,0,0,1.65,2.87c.25.37.52.74.8,1.1a2.31,2.31,0,0,0-.31,1.14,2.26,2.26,0,1,0,2.25-2.26Zm-68.85-47.45a1.41,1.41,0,0,1-1-.4l-1.13-1.25a9.19,9.19,0,0,0,2.81.41,1.08,1.08,0,0,0-.14.53,1.06,1.06,0,0,0,.24.67Zm3.45-1.22a4.35,4.35,0,0,0,.52-.06c.7-.13,2.41-.5,2.41-.5a18.51,18.51,0,0,1,2.71-.63L142,199.7a2,2,0,0,1-1,.44l-2,.1A3.28,3.28,0,0,0,138.16,199.24ZM121.7,250l.42-.74,21.2,3.64Zm.89-1.59,17.86-31.55c.28-.37.79-.39.91.07s1.26,4.12,1.35,4.3.24.05.25.05l9,32Zm56.16-25.05-4.45,4.94-4.43,5c-2.93,3.33-5.88,6.64-8.73,10-.72.85-1.43,1.69-2.14,2.55s-1.41,1.71-2.1,2.58l-1.05,1.3-1,1.31-1.06,1.38-10.46-37c-.11-.54-.06-1.17.76-1.23l-.15,0c1.26-.09,2.52-.18,3.78-.24,1.91-.11,3.81-.19,5.72-.27a.88.88,0,0,1,.36,0c.12,0,.25.1.37.13a1.43,1.43,0,0,0,.36,0l.35,0,1.43,0,2.86-.12c1.91-.09,3.82-.17,5.72-.28l5.72-.3a16.22,16.22,0,0,0,2.86-.29l2.86-.15,2.86-.15.94,0,6.75,2,.06.18C184.16,217.49,181.45,220.43,178.75,223.38Z" transform="translate(-54.9 -24.11)"/>
    </g>
    <g>
      <line class="cls-7-bike" x1="9.65" y1="253.65" x2="209.74" y2="253.65"/>
      <line class="cls-7-bike" x1="2.46" y1="258.39" x2="80.39" y2="258.39"/>
      <line class="cls-7-bike" x1="88.27" y1="258.39" x2="224.18" y2="258.39"/>
      <line class="cls-7-bike" x1="10.32" y1="263.68" x2="52.34" y2="263.68"/>
      <line class="cls-7-bike" x1="59.03" y1="263.68" x2="157.14" y2="263.68"/>
      <line class="cls-7-bike" x1="161" y1="263.68" x2="219.14" y2="263.68"/>
    </g>
  </g>
</svg>
